<?xml version="1.0" encoding="utf-8"?>
<!-- Generator: Adobe Illustrator 23.1.1, SVG Export Plug-In . SVG Version: 6.00 Build 0)  -->
<svg version="1.1" id="Layer_1" xmlns="http://www.w3.org/2000/svg" xmlns:xlink="http://www.w3.org/1999/xlink" x="0px" y="0px"
	 viewBox="0 0 248.6 351.4" style="enable-background:new 0 0 248.6 351.4;" xml:space="preserve">
<style type="text/css">
	.st0{fill:#E16261;}
</style>
<path class="st0" d="M160.5,97.4c-8.4,24.3-31.5,41.7-58.6,41.7c-27.3,0-50.5-17.7-58.8-42.3C25.8,112.6,15,135.4,15,160.6
	c0,47.8,86.5,165.4,86.5,165.4s86.5-117.6,86.5-165.4C188.1,135.7,177.5,113.2,160.5,97.4z"/>
<path d="M178.7,82.4l69.8-14l-76-22C160.7,19.1,133.5,0,101.9,0c-42.5,0-77,34.6-77,77c0,5.2,0.5,10.4,1.5,15.3
	C9.5,111,0,135.4,0,160.6c0,22.9,14.9,58.4,45.5,108.5c21.7,35.5,43.1,64.6,44,65.8l12.1,16.4l12.1-16.4c0.9-1.2,22.3-30.3,44-65.8
	c30.6-50,45.5-85.5,45.5-108.5c0-24.9-9.3-49.1-25.8-67.6C178,89.6,178.5,86,178.7,82.4z M101.9,30c25.9,0,47,21.1,47,47
	c0,5.5-1,10.8-2.7,15.7c-0.1,0.3-0.2,0.6-0.4,1c-0.1,0.4-0.3,0.8-0.5,1.2c-0.1,0.2-0.2,0.5-0.3,0.7c-0.3,0.6-0.5,1.2-0.8,1.8
	c0,0,0,0,0,0c-3.6,7.5-9.2,14-16.1,18.6c0,0,0,0,0,0c-1.2,0.8-2.5,1.6-3.8,2.3c-0.1,0.1-0.3,0.1-0.4,0.2c-0.5,0.2-0.9,0.5-1.4,0.7
	c-0.2,0.1-0.5,0.2-0.7,0.4c-0.4,0.2-0.7,0.3-1.1,0.5c-0.3,0.1-0.6,0.3-0.9,0.4c-0.4,0.2-0.7,0.3-1.1,0.4c-0.5,0.2-1.1,0.4-1.6,0.6
	c-0.3,0.1-0.6,0.2-0.9,0.3c-0.4,0.1-0.7,0.2-1.1,0.3c-0.3,0.1-0.6,0.2-0.9,0.3c-0.4,0.1-0.7,0.2-1.1,0.3c-0.3,0.1-0.7,0.2-1,0.2
	c-0.3,0.1-0.7,0.2-1,0.2c-0.6,0.1-1.3,0.2-1.9,0.3c-0.3,0-0.6,0.1-0.8,0.1c-0.4,0.1-0.9,0.1-1.3,0.2c-0.3,0-0.6,0.1-0.8,0.1
	c-0.5,0-1,0.1-1.4,0.1c-0.2,0-0.5,0-0.7,0c-0.7,0-1.4,0.1-2.2,0.1c-0.7,0-1.5,0-2.2-0.1c-0.2,0-0.5,0-0.7,0c-0.5,0-1-0.1-1.5-0.1
	c-0.2,0-0.5,0-0.7-0.1c-0.5-0.1-1-0.1-1.6-0.2c-0.2,0-0.4-0.1-0.6-0.1c-0.7-0.1-1.4-0.2-2.1-0.4c-0.1,0-0.3-0.1-0.4-0.1
	c-0.6-0.1-1.2-0.3-1.7-0.4c-0.2,0-0.4-0.1-0.6-0.1c-0.6-0.1-1.1-0.3-1.7-0.5c-0.1,0-0.3-0.1-0.4-0.1C74.7,117.7,64,108,58.6,95.4
	c-0.1-0.2-0.2-0.4-0.2-0.6c-0.2-0.4-0.3-0.9-0.5-1.3c-0.1-0.3-0.3-0.7-0.4-1c-1.7-4.9-2.6-10.1-2.6-15.5C54.9,51.1,76,30,101.9,30z
	 M101.6,300.2c-8.1-11.8-19.4-28.6-30.6-46.9c-35.6-58.3-41-83.1-41-92.6c0-13.2,3.7-26.1,10.4-37.2c9.7,12.8,23.2,22.3,38.5,27.1
	c0,0,0.1,0,0.1,0c1.1,0.3,2.3,0.7,3.4,1c0.2,0,0.3,0.1,0.5,0.1c1.1,0.3,2.2,0.5,3.4,0.8c0.1,0,0.2,0,0.4,0.1
	c1.1,0.2,2.1,0.4,3.2,0.6c0.2,0,0.3,0.1,0.5,0.1c1.1,0.2,2.2,0.3,3.3,0.4c0.2,0,0.5,0.1,0.7,0.1c1.1,0.1,2.2,0.2,3.4,0.3
	c0.2,0,0.4,0,0.6,0c1.2,0.1,2.4,0.1,3.6,0.1c1.2,0,2.4,0,3.6-0.1c0.2,0,0.4,0,0.6,0c1.1-0.1,2.2-0.1,3.3-0.2c0.3,0,0.6-0.1,0.9-0.1
	c1-0.1,2.1-0.2,3.1-0.4c0.3,0,0.6-0.1,1-0.2c0.8-0.1,1.6-0.3,2.4-0.4c0.4-0.1,0.9-0.2,1.3-0.3c0.8-0.2,1.6-0.4,2.4-0.5
	c0.4-0.1,0.8-0.2,1.3-0.3c0.9-0.2,1.7-0.5,2.6-0.7c0.4-0.1,0.8-0.3,1.3-0.4c0.8-0.2,1.5-0.5,2.3-0.8c0.4-0.2,0.8-0.3,1.3-0.5
	c0.7-0.3,1.4-0.6,2.2-0.9c0.3-0.1,0.6-0.2,0.9-0.4c0.9-0.4,1.8-0.8,2.8-1.2c0.2-0.1,0.5-0.2,0.7-0.3c1-0.5,1.9-1,2.9-1.5
	c0.1,0,0.2-0.1,0.2-0.1c9.4-5.1,17.7-12.2,24.2-20.7c6.6,10.9,10.1,23.5,10.1,36.7C173.1,188.2,133.2,254.7,101.6,300.2z"/>
</svg>
